<svg width="39" height="39" viewBox="0 0 39 39" fill="none" xmlns="http://www.w3.org/2000/svg">
<path d="M19.5 0.75C29.8556 0.75 38.25 9.14438 38.25 19.5C38.25 29.8556 29.8556 38.25 19.5 38.25C9.14438 38.25 0.75 29.8556 0.75 19.5C0.75 9.14438 9.14438 0.75 19.5 0.75ZM19.5 4.5C15.5218 4.5 11.7064 6.08035 8.8934 8.8934C6.08035 11.7064 4.5 15.5218 4.5 19.5C4.5 23.4782 6.08035 27.2936 8.8934 30.1066C11.7064 32.9196 15.5218 34.5 19.5 34.5C23.4782 34.5 27.2936 32.9196 30.1066 30.1066C32.9196 27.2936 34.5 23.4782 34.5 19.5C34.5 15.5218 32.9196 11.7064 30.1066 8.8934C27.2936 6.08035 23.4782 4.5 19.5 4.5ZM19.5 10.125C21.4736 10.1257 23.3966 10.7493 24.9951 11.9069C26.5936 13.0644 27.786 14.697 28.4024 16.5718C29.0189 18.4467 29.0279 20.4683 28.4282 22.3485C27.8285 24.2288 26.6508 25.8719 25.0627 27.0437C23.4746 28.2155 21.5572 28.8562 19.5837 28.8746C17.6102 28.893 15.6812 28.2881 14.0716 27.146C12.462 26.004 11.2538 24.3831 10.6193 22.5143C9.98469 20.6455 9.95608 18.6241 10.5375 16.7381C10.9761 17.7182 11.738 18.5179 12.6957 19.0034C13.6534 19.4889 14.7489 19.6308 15.7987 19.4052C16.8484 19.1797 17.7889 18.6004 18.4627 17.7644C19.1365 16.9283 19.5027 15.8862 19.5 14.8125C19.5002 13.9096 19.2397 13.0259 18.7498 12.2675C18.2598 11.5091 17.5613 10.9084 16.7381 10.5375C17.6119 10.2694 18.5381 10.125 19.5 10.125Z" fill="#F4511E"/>
</svg>
