<svg width="39" height="39" viewBox="0 0 39 39" fill="none" xmlns="http://www.w3.org/2000/svg">
<path d="M19.5 38.25C9.14439 38.25 0.750015 29.8556 0.750015 19.5C0.750015 9.14437 9.14439 0.75 19.5 0.75C29.8556 0.75 38.25 9.14437 38.25 19.5C38.25 29.8556 29.8556 38.25 19.5 38.25ZM19.5 34.5C23.4783 34.5 27.2936 32.9196 30.1066 30.1066C32.9197 27.2936 34.5 23.4782 34.5 19.5C34.5 15.5218 32.9197 11.7064 30.1066 8.8934C27.2936 6.08035 23.4783 4.5 19.5 4.5C15.5218 4.5 11.7065 6.08035 8.89341 8.8934C6.08037 11.7064 4.50001 15.5218 4.50001 19.5C4.50001 23.4782 6.08037 27.2936 8.89341 30.1066C11.7065 32.9196 15.5218 34.5 19.5 34.5ZM12.9375 23.25H23.25C23.4987 23.25 23.7371 23.1512 23.9129 22.9754C24.0887 22.7996 24.1875 22.5611 24.1875 22.3125C24.1875 22.0639 24.0887 21.8254 23.9129 21.6496C23.7371 21.4738 23.4987 21.375 23.25 21.375H15.75C14.5068 21.375 13.3145 20.8811 12.4355 20.0021C11.5564 19.123 11.0625 17.9307 11.0625 16.6875C11.0625 15.4443 11.5564 14.252 12.4355 13.3729C13.3145 12.4939 14.5068 12 15.75 12H17.625V8.25H21.375V12H26.0625V15.75H15.75C15.5014 15.75 15.2629 15.8488 15.0871 16.0246C14.9113 16.2004 14.8125 16.4389 14.8125 16.6875C14.8125 16.9361 14.9113 17.1746 15.0871 17.3504C15.2629 17.5262 15.5014 17.625 15.75 17.625H23.25C24.4932 17.625 25.6855 18.1189 26.5646 18.9979C27.4437 19.877 27.9375 21.0693 27.9375 22.3125C27.9375 23.5557 27.4437 24.748 26.5646 25.6271C25.6855 26.5061 24.4932 27 23.25 27H21.375V30.75H17.625V27H12.9375V23.25Z" fill="#F4511E"/>
</svg>
