<svg width="37" height="39" viewBox="0 0 37 39" fill="none" xmlns="http://www.w3.org/2000/svg">
<path d="M8.25 0.75C13.2937 0.75 17.67 3.59438 19.8694 7.76438C22.0763 4.65563 25.7062 2.625 29.8125 2.625H36.375V7.3125C36.375 14.0437 30.9188 19.5 24.1875 19.5H21.375V21.375H30.75V34.5C30.75 36.5719 29.0719 38.25 27 38.25H12C9.92813 38.25 8.25 36.5719 8.25 34.5V21.375H17.625V17.625H13.875C6.62625 17.625 0.75 11.7487 0.75 4.5V0.75H8.25ZM27 25.125H12V34.5H27V25.125ZM32.625 6.375H29.8125C25.1531 6.375 21.375 10.1531 21.375 14.8125V15.75H24.1875C28.8469 15.75 32.625 11.9719 32.625 7.3125V6.375ZM8.25 4.5H4.5C4.5 9.67688 8.69813 13.875 13.875 13.875H17.625C17.625 8.69813 13.4269 4.5 8.25 4.5Z" fill="#F4511E"/>
</svg>
