<svg width="40" height="35" viewBox="0 0 40 35" fill="none" xmlns="http://www.w3.org/2000/svg">
<path d="M37.25 34.375H2.74998C2.24165 34.375 1.75414 34.1775 1.39469 33.8258C1.03525 33.4742 0.833313 32.9973 0.833313 32.5V18.4131C0.833283 18.1452 0.891946 17.8804 1.00535 17.6365C1.11875 17.3927 1.28426 17.1754 1.49073 16.9994L8.49998 11.02V2.5C8.49998 2.00272 8.70191 1.52581 9.06136 1.17417C9.4208 0.822544 9.90831 0.625 10.4166 0.625H37.25C37.7583 0.625 38.2458 0.822544 38.6053 1.17417C38.9647 1.52581 39.1666 2.00272 39.1666 2.5V32.5C39.1666 32.9973 38.9647 33.4742 38.6053 33.8258C38.2458 34.1775 37.7583 34.375 37.25 34.375ZM14.25 30.625H20V19.2663L12.3333 12.7263L4.66665 19.2663V30.625H10.4166V23.125H14.25V30.625ZM23.8333 30.625H35.3333V4.375H12.3333V8.36312C12.7818 8.36312 13.2322 8.51688 13.5926 8.82625L23.1759 16.9994C23.3824 17.1754 23.5479 17.3927 23.6613 17.6365C23.7747 17.8804 23.8333 18.1452 23.8333 18.4131V30.625ZM27.6666 15.625H31.5V19.375H27.6666V15.625ZM27.6666 23.125H31.5V26.875H27.6666V23.125ZM27.6666 8.125H31.5V11.875H27.6666V8.125ZM20 8.125H23.8333V11.875H20V8.125Z" fill="#F4511E"/>
</svg>
