<svg width="35" height="43" viewBox="0 0 35 43" fill="none" xmlns="http://www.w3.org/2000/svg">
<path d="M4.375 7.6325V24.8544C4.37502 26.089 4.67983 27.3045 5.26236 28.393C5.8449 29.4816 6.68716 30.4095 7.71438 31.0944L17.5 37.6194L27.2856 31.0944C28.3126 30.4097 29.1547 29.4821 29.7372 28.3939C30.3197 27.3057 30.6247 26.0905 30.625 24.8563V7.6325L17.5 4.71875L4.375 7.6325ZM2.09312 4.29875L17.5 0.875L32.9069 4.29875C33.3232 4.39131 33.6956 4.62306 33.9625 4.95576C34.2294 5.28846 34.3749 5.70222 34.375 6.12875V24.8544C34.3749 26.7064 33.9175 28.5297 33.0435 30.1625C32.1696 31.7953 30.906 33.1871 29.365 34.2144L17.5 42.125L5.635 34.2144C4.09426 33.1873 2.83086 31.7958 1.9569 30.1633C1.08294 28.5309 0.625443 26.7079 0.625 24.8563V6.12875C0.625073 5.70222 0.770571 5.28846 1.03748 4.95576C1.30439 4.62306 1.67676 4.39131 2.09312 4.29875ZM17.5 24.3125L11.9894 27.2094L13.0412 21.0744L8.58437 16.7281L14.7456 15.8319L17.5 10.25L20.2563 15.8319L26.4156 16.7281L21.9587 21.0744L23.0087 27.2094L17.5 24.3125Z" fill="#F4511E"/>
</svg>
