<svg width="37" height="40" viewBox="0 0 37 40" fill="none" xmlns="http://www.w3.org/2000/svg">
<path d="M33.6556 26.4999L35.9093 27.8518C36.0484 27.935 36.1635 28.0529 36.2434 28.1939C36.3233 28.3348 36.3653 28.4941 36.3653 28.6562C36.3653 28.8182 36.3233 28.9775 36.2434 29.1185C36.1635 29.2595 36.0484 29.3773 35.9093 29.4605L19.4656 39.3268C19.174 39.502 18.8402 39.5946 18.5 39.5946C18.1598 39.5946 17.826 39.502 17.5343 39.3268L1.0906 29.4605C0.951558 29.3773 0.83647 29.2595 0.756559 29.1185C0.676648 28.9775 0.634644 28.8182 0.634644 28.6562C0.634644 28.4941 0.676648 28.3348 0.756559 28.1939C0.83647 28.0529 0.951558 27.935 1.0906 27.8518L3.34435 26.4999L18.5 35.5937L33.6556 26.4999ZM33.6556 17.6874L35.9093 19.0393C36.0484 19.1225 36.1635 19.2404 36.2434 19.3814C36.3233 19.5223 36.3653 19.6816 36.3653 19.8437C36.3653 20.0057 36.3233 20.165 36.2434 20.306C36.1635 20.447 36.0484 20.5648 35.9093 20.648L18.5 31.0937L1.0906 20.648C0.951558 20.5648 0.83647 20.447 0.756559 20.306C0.676648 20.165 0.634644 20.0057 0.634644 19.8437C0.634644 19.6816 0.676648 19.5223 0.756559 19.3814C0.83647 19.2404 0.951558 19.1225 1.0906 19.0393L3.34435 17.6874L18.5 26.7812L33.6556 17.6874ZM19.4637 0.454292L35.9093 10.3205C36.0484 10.4038 36.1635 10.5216 36.2434 10.6626C36.3233 10.8036 36.3653 10.9629 36.3653 11.1249C36.3653 11.287 36.3233 11.4462 36.2434 11.5872C36.1635 11.7282 36.0484 11.8461 35.9093 11.9293L18.5 22.3749L1.0906 11.9293C0.951558 11.8461 0.83647 11.7282 0.756559 11.5872C0.676648 11.4462 0.634644 11.287 0.634644 11.1249C0.634644 10.9629 0.676648 10.8036 0.756559 10.6626C0.83647 10.5216 0.951558 10.4038 1.0906 10.3205L17.5343 0.454292C17.826 0.279085 18.1598 0.186523 18.5 0.186523C18.8402 0.186523 19.174 0.279085 19.4656 0.454292H19.4637ZM18.5 4.24742L7.0381 11.1249L18.5 18.0024L29.9618 11.1249L18.5 4.24742Z" fill="#F4511E"/>
</svg>
