<svg width="16" height="12" viewBox="0 0 16 12" fill="none" xmlns="http://www.w3.org/2000/svg">
<path d="M6.95858 1.61287H8.99067C9.93102 1.61373 10.7475 2.26078 10.9631 3.17607C10.9812 3.25237 11.0493 3.30631 11.1277 3.30649H14.2417C14.2866 3.30666 14.3297 3.28893 14.3615 3.25723C14.3933 3.22554 14.4112 3.18247 14.4112 3.13756V1.44333C14.4112 1.08398 14.2684 0.739356 14.0143 0.485316C13.7601 0.231277 13.4154 0.0886415 13.0561 0.0888063H2.89315C2.5338 0.0886415 2.18912 0.231277 1.93496 0.485316C1.6808 0.739356 1.53801 1.08398 1.53801 1.44333V3.13756C1.53801 3.18247 1.55589 3.22554 1.58771 3.25723C1.61952 3.28893 1.66265 3.30666 1.70756 3.30649H4.82153C4.9001 3.30677 4.96842 3.25263 4.98611 3.17607C5.20176 2.26078 6.01822 1.61373 6.95858 1.61287Z" fill="black"/>
<path d="M1.19951 4.32312C1.01976 4.32296 0.847321 4.39429 0.720216 4.52139C0.593111 4.6485 0.521777 4.82094 0.521942 5.00069V8.55747C0.521942 8.8795 0.748593 9.15703 1.06412 9.22138C1.14285 9.23757 1.19939 9.30682 1.19951 9.3872V10.7591C1.19951 11.1333 1.50287 11.4367 1.87708 11.4367C2.2513 11.4367 2.55465 11.1333 2.55465 10.7591V9.40459C2.55449 9.35968 2.57221 9.31655 2.60391 9.28474C2.63561 9.25292 2.67867 9.23504 2.72358 9.23504H13.2256C13.2705 9.23504 13.3136 9.25292 13.3453 9.28474C13.377 9.31655 13.3947 9.35968 13.3945 9.40459V10.7591C13.3945 11.1333 13.6979 11.4367 14.0721 11.4367C14.4463 11.4367 14.7497 11.1333 14.7497 10.7591V9.3872C14.7498 9.30682 14.8063 9.23757 14.8851 9.22138C15.2006 9.15703 15.4273 8.8795 15.4273 8.55747V5.00069C15.4274 4.82094 15.3561 4.6485 15.229 4.52139C15.1019 4.39429 14.9294 4.32296 14.7497 4.32312H1.19951Z" fill="black"/>
</svg>
